<svg id="Layer_1" data-name="Layer 1" xmlns="http://www.w3.org/2000/svg" viewBox="0 0 113.35 126.41"><path d="M57.23,121.07a20.28,20.28,0,0,1-10.18-2.72l-31.4-18.12A20.43,20.43,0,0,1,5.48,82.6V46.35A20.42,20.42,0,0,1,15.65,28.72l31.4-18.13a20.42,20.42,0,0,1,20.35,0L98.8,28.72A20.41,20.41,0,0,1,109,46.35V82.6A20.42,20.42,0,0,1,98.8,100.23L67.4,118.35A20.35,20.35,0,0,1,57.23,121.07Zm0-109.54a16.64,16.64,0,0,0-8.35,2.23L17.48,31.89A16.74,16.74,0,0,0,9.13,46.35V82.6a16.74,16.74,0,0,0,8.35,14.46l31.4,18.13a16.76,16.76,0,0,0,16.7,0L97,97.06a16.74,16.74,0,0,0,8.35-14.46V46.35A16.74,16.74,0,0,0,97,31.89L65.58,13.76A16.7,16.7,0,0,0,57.23,11.53Z" style="fill:#0d123e"/></svg>