<svg xmlns="http://www.w3.org/2000/svg" viewBox="0 0 475 720"><g id="Layer_2" data-name="Layer 2"><g id="Layer_1-2" data-name="Layer 1"><path d="M96,281.37v72.16a20,20,0,0,1-9.07,17.07L45.07,403A20,20,0,0,0,36,420V720H0V0H36V214.89A20,20,0,0,0,45.07,232L86.93,264.3A20,20,0,0,1,96,281.37Z" style="fill:#0d123e"/><path d="M65.24,316c3.86,0,7-4.7,7-10.5s-3.14-8.08-7-8.08-7,2.28-7,8.08S61.37,316,65.24,316Z" style="fill:#fff"/><path d="M96,490.52V601.94H36V429.07s7,21,39.17,31.5C90,465.41,94.93,478.19,96,490.52Z" style="fill:#96c93f"/><path d="M96,569V680.44H36V507.57s7,21,39.17,31.5C90,543.91,94.93,556.69,96,569Z" style="fill:#3ab549"/><path d="M96,647.52V720H36V586.07s7,21,39.17,31.5C90,622.41,94.93,635.19,96,647.52Z" style="fill:#0b9444"/><path d="M66.32,499.58a5.17,5.17,0,0,0-.15,1.19,4.12,4.12,0,0,0,0,.51A11.14,11.14,0,0,1,63,499.06h0a11.32,11.32,0,0,1-2.23-3.15l.51,0a4.7,4.7,0,0,0,1.2-.15L61,486.23l-.2,0a4.84,4.84,0,0,0-4.34,4.82A14.56,14.56,0,0,0,71,505.63a4.86,4.86,0,0,0,4.83-4.35c0-.06,0-.13,0-.19Z" style="fill:#fff"/><path d="M64.69,487.54a.39.39,0,0,0,.22.11,11.89,11.89,0,0,1,9.54,9.53.35.35,0,0,0,.1.22l.39.39a.37.37,0,0,0,.62-.3,13.67,13.67,0,0,0-11-10.95.36.36,0,0,0-.29.62Z" style="fill:#fff"/><path d="M65.31,489.89a.23.23,0,0,0-.19.39l.24.24a.27.27,0,0,0,.14.07,7.5,7.5,0,0,1,6,6,.17.17,0,0,0,.06.14l.24.24a.23.23,0,0,0,.39-.18,8.59,8.59,0,0,0-6.89-6.9Z" style="fill:#fff"/><path d="M60.54,561.7a11.8,11.8,0,0,0-2.17,1,10.16,10.16,0,0,0,1.31,1C59.94,563,60.23,562.32,60.54,561.7Z" style="fill:#fff"/><path d="M60.86,564.22a8.85,8.85,0,0,0,2.52.61v-3.68a10.19,10.19,0,0,0-1.11.13A19,19,0,0,0,60.86,564.22Z" style="fill:#fff"/><path d="M59.14,565.21A10.56,10.56,0,0,1,57,563.62a11.67,11.67,0,0,0-4.43,8.24h5.54A26,26,0,0,1,59.14,565.21Z" style="fill:#fff"/><path d="M59.4,571.86h4v-5.39a10.36,10.36,0,0,1-3-.7A24.46,24.46,0,0,0,59.4,571.86Z" style="fill:#fff"/><path d="M58.08,573.5H52.54a11.65,11.65,0,0,0,4.37,8.43,10.47,10.47,0,0,1,2.25-1.66A26,26,0,0,1,58.08,573.5Z" style="fill:#fff"/><path d="M60.36,579.71a10.16,10.16,0,0,1,3-.7V573.5h-4A25,25,0,0,0,60.36,579.71Z" style="fill:#fff"/><path d="M58.28,582.88a11.83,11.83,0,0,0,2.38,1.06,22.36,22.36,0,0,1-1-2.1A9.58,9.58,0,0,0,58.28,582.88Z" style="fill:#fff"/><path d="M62.39,584.35c.33,0,.66.09,1,.11v-3.81a8.8,8.8,0,0,0-2.5.61A18.85,18.85,0,0,0,62.39,584.35Z" style="fill:#fff"/><path d="M66.16,561.28a10.45,10.45,0,0,0-1.14-.13v3.68a8.92,8.92,0,0,0,2.54-.62A18.4,18.4,0,0,0,66.16,561.28Z" style="fill:#fff"/><path d="M70,562.68a11.49,11.49,0,0,0-2.14-1c.31.62.59,1.25.85,1.91A9.26,9.26,0,0,0,70,562.68Z" style="fill:#fff"/><path d="M68.08,565.76a10.12,10.12,0,0,1-3.06.71v5.39h4A24.61,24.61,0,0,0,68.08,565.76Z" style="fill:#fff"/><path d="M70.34,571.86h5.51a11.7,11.7,0,0,0-4.42-8.24,10.68,10.68,0,0,1-2.15,1.57A25.77,25.77,0,0,1,70.34,571.86Z" style="fill:#fff"/><path d="M65,584.46c.34,0,.68-.06,1-.11a18.71,18.71,0,0,0,1.5-3.08,9.21,9.21,0,0,0-2.52-.62Z" style="fill:#fff"/><path d="M67.78,583.93a11.71,11.71,0,0,0,2.34-1,9.53,9.53,0,0,0-1.4-1A21.89,21.89,0,0,1,67.78,583.93Z" style="fill:#fff"/><path d="M69,573.5H65V579a10.37,10.37,0,0,1,3,.71A24.51,24.51,0,0,0,69,573.5Z" style="fill:#fff"/><path d="M70.34,573.5a25.31,25.31,0,0,1-1.08,6.78,10.71,10.71,0,0,1,2.24,1.65,11.72,11.72,0,0,0,4.37-8.43Z" style="fill:#fff"/><path d="M63.38,640a7.09,7.09,0,0,0-7,7.16,7.2,7.2,0,0,0,1,3.69l6,11.91,6-11.91a7.3,7.3,0,0,0,1-3.69A7.09,7.09,0,0,0,63.38,640Zm1,10a2.87,2.87,0,0,1-1,.17,2.81,2.81,0,0,1-1-.17,2.95,2.95,0,1,1,1.93,0Z" style="fill:#fff"/><path d="M237.5,226.6a20.39,20.39,0,0,1-10.18-2.72l-31.39-18.13a20.41,20.41,0,0,1-10.18-17.63V151.88a20.41,20.41,0,0,1,10.18-17.63l31.39-18.13a20.44,20.44,0,0,1,20.36,0l31.39,18.13a20.41,20.41,0,0,1,10.18,17.63v36.24a20.41,20.41,0,0,1-10.18,17.63l-31.39,18.13A20.39,20.39,0,0,1,237.5,226.6Zm0-109.54a16.67,16.67,0,0,0-8.35,2.23l-31.39,18.12a16.76,16.76,0,0,0-8.35,14.47v36.24a16.76,16.76,0,0,0,8.35,14.47l31.39,18.12a16.72,16.72,0,0,0,16.7,0l31.39-18.12a16.76,16.76,0,0,0,8.35-14.47V151.88a16.76,16.76,0,0,0-8.35-14.47l-31.39-18.12A16.64,16.64,0,0,0,237.5,117.06Z" style="fill:#0d123e"/><path d="M475,44.64v88.9c0,.89-1.44,1.35-2.32.74l-11-7.67c-5-3.51-7.91-8.41-7.91-13.53v-48c0-5.12,2.86-10,7.91-13.52l11-7.68C473.56,43.28,475,43.74,475,44.64Z" style="fill:#96c93f"/></g></g></svg>